<svg width="250" height="50" viewBox="0 0 250 50" fill="none" xmlns="http://www.w3.org/2000/svg">
<path d="M26.4 3H39.75V3.95H37V37.05H39.75V38H24.5V37.05H27.25V5.8H27.05L19.55 38H13.3L4.5 5.65H4.3V37.05H7.05V38H0.25V37.05H3V3.95H0.25V3H13.75L20.4 28.75L26.4 3ZM70.2539 38H58.8539L58.3039 34.35C57.7706 35.6833 56.9706 36.7167 55.9039 37.45C54.8706 38.15 53.3206 38.5 51.2539 38.5C46.0872 38.5 43.5039 35.7167 43.5039 30.15V15.1H40.7039V14.2H52.8039V31.35C52.8039 33.35 52.9372 34.6667 53.2039 35.3C53.5039 35.9333 54.0706 36.25 54.9039 36.25C55.7706 36.25 56.5372 35.7333 57.2039 34.7C57.8706 33.6667 58.2039 32.2333 58.2039 30.4V15.1H55.9039V14.2H67.5039V37.1H70.2539V38ZM72.4273 38.5V29.55H73.0273C73.894 32.45 75.0607 34.4833 76.5273 35.65C77.994 36.8167 79.8273 37.4 82.0273 37.4C85.4273 37.4 87.1273 36.3167 87.1273 34.15C87.1273 33.2167 86.7107 32.5167 85.8773 32.05C84.5773 31.3167 82.9107 30.75 80.8773 30.35C78.6107 29.75 76.7107 28.95 75.1773 27.95C73.344 26.75 72.4273 24.85 72.4273 22.25C72.4273 19.65 73.2273 17.5833 74.8273 16.05C76.4273 14.4833 78.5607 13.7 81.2273 13.7C82.8607 13.7 84.544 14.0833 86.2773 14.85C86.9107 15.1167 87.394 15.25 87.7273 15.25C88.0607 15.25 88.344 15.1333 88.5773 14.9C88.8107 14.6667 89.094 14.2333 89.4273 13.6H89.9773V21.25H89.3773C87.6773 16.9167 85.044 14.75 81.4773 14.75C79.9107 14.75 78.744 15.0333 77.9773 15.6C77.2107 16.1333 76.8273 16.8167 76.8273 17.65C76.8273 18.15 76.944 18.55 77.1773 18.85C77.4107 19.1167 77.594 19.3167 77.7273 19.45C77.8607 19.5833 78.0773 19.7333 78.3773 19.9C78.6773 20.0333 78.9273 20.15 79.1273 20.25C79.3273 20.3167 79.6273 20.4167 80.0273 20.55C80.4607 20.6833 80.7773 20.7667 80.9773 20.8C83.244 21.3667 84.8773 21.8667 85.8773 22.3C86.8773 22.7 87.8273 23.2 88.7273 23.8C90.5607 25.0667 91.4773 27.1167 91.4773 29.95C91.4773 32.75 90.644 34.8833 88.9773 36.35C87.3107 37.7833 85.0273 38.5 82.1273 38.5C80.0607 38.5 78.0607 38.0167 76.1273 37.05C75.7273 36.7833 75.4107 36.65 75.1773 36.65C74.444 36.65 73.7273 37.2667 73.0273 38.5H72.4273ZM106.957 14.6C105.49 14.6 104.44 15.4 103.807 17C103.174 18.6 102.857 21.25 102.857 24.95V27.55C102.857 30.85 103.224 33.2167 103.957 34.65C104.69 36.0833 106.04 36.8 108.007 36.8C109.974 36.8 111.54 36.1333 112.707 34.8C113.874 33.4667 114.624 31.95 114.957 30.25L115.857 30.35C115.224 33.2167 114.057 35.2833 112.357 36.55C110.624 37.85 108.24 38.5 105.207 38.5C101.34 38.5 98.3737 37.4667 96.307 35.4C94.2404 33.3 93.207 30.25 93.207 26.25C93.207 22.2167 94.3737 19.1167 96.707 16.95C99.0737 14.7833 102.357 13.7 106.557 13.7C109.524 13.7 111.79 14.2833 113.357 15.45C114.924 16.5833 115.707 18.0167 115.707 19.75C115.707 21.4833 115.324 22.75 114.557 23.55C113.824 24.35 112.79 24.75 111.457 24.75C110.157 24.75 109.107 24.4 108.307 23.7C107.507 23 107.107 21.9667 107.107 20.6C107.107 20 107.19 19.4 107.357 18.8H109.007C109.24 18.1333 109.357 17.5333 109.357 17C109.357 15.4 108.557 14.6 106.957 14.6ZM116.439 0.499997H128.689V37.1H131.489V38H116.639V37.1H119.389V1.4H116.439V0.499997ZM145.609 38.5C141.309 38.5 138.076 37.4 135.909 35.2C133.776 32.9667 132.709 29.8833 132.709 25.95C132.709 21.9833 133.909 18.95 136.309 16.85C138.742 14.75 141.826 13.7 145.559 13.7C153.126 13.7 156.759 17.5 156.459 25.1H142.359V27.05C142.359 30.3167 142.776 32.7833 143.609 34.45C144.442 36.1167 145.892 36.95 147.959 36.95C151.826 36.95 154.359 34.8833 155.559 30.75L156.459 30.9C155.826 33.3 154.676 35.1667 153.009 36.5C151.376 37.8333 148.909 38.5 145.609 38.5ZM142.409 24.1H147.559V21.65C147.559 18.95 147.392 17.1167 147.059 16.15C146.759 15.15 146.126 14.65 145.159 14.65C144.226 14.65 143.526 15.1833 143.059 16.25C142.626 17.2833 142.409 19.0833 142.409 21.65V24.1Z" fill="#FFFDFD"/>
<path d="M171.29 27.35C171.29 30.4167 171.807 32.7667 172.84 34.4C173.907 36.0333 175.807 36.85 178.54 36.85C181.274 36.85 183.374 36 184.84 34.3C186.307 32.6 187.04 30.0167 187.04 26.55V3.95H183.79V3H191.09V3.95H188.34V26.2C188.34 30.3333 187.424 33.4167 185.59 35.45C183.757 37.4833 180.507 38.5 175.84 38.5C171.207 38.5 167.657 37.5333 165.19 35.6C162.757 33.6667 161.54 30.35 161.54 25.65V3.95H158.79V3H174.54V3.95H171.29V27.35ZM210.133 24.55C210.133 21.1167 209.966 18.8167 209.633 17.65C209.299 16.45 208.649 15.85 207.683 15.85C206.716 15.85 205.849 16.4833 205.083 17.75C204.316 18.9833 203.933 20.65 203.933 22.75V31.9C203.933 33.3333 204.216 34.55 204.783 35.55C205.349 36.55 206.183 37.05 207.283 37.05C208.383 37.05 209.133 36.3167 209.533 34.85C209.933 33.3833 210.133 30.8167 210.133 27.15V24.55ZM203.833 14.2V18.15C205.133 15.1833 207.433 13.7 210.733 13.7C213.599 13.7 215.816 14.7333 217.383 16.8C218.983 18.8667 219.783 22 219.783 26.2C219.783 30.4 218.916 33.5 217.183 35.5C215.483 37.5 212.916 38.5 209.483 38.5C207.883 38.5 206.683 38.3 205.883 37.9C205.083 37.5 204.433 36.8833 203.933 36.05V49H210.383V49.9H191.883V49H194.633V15.1H191.983V14.2H203.833ZM239.527 24.55C239.527 21.1167 239.361 18.8167 239.027 17.65C238.694 16.45 238.044 15.85 237.077 15.85C236.111 15.85 235.244 16.4833 234.477 17.75C233.711 18.9833 233.327 20.65 233.327 22.75V31.9C233.327 33.3333 233.611 34.55 234.177 35.55C234.744 36.55 235.577 37.05 236.677 37.05C237.777 37.05 238.527 36.3167 238.927 34.85C239.327 33.3833 239.527 30.8167 239.527 27.15V24.55ZM233.227 14.2V18.15C234.527 15.1833 236.827 13.7 240.127 13.7C242.994 13.7 245.211 14.7333 246.777 16.8C248.377 18.8667 249.177 22 249.177 26.2C249.177 30.4 248.311 33.5 246.577 35.5C244.877 37.5 242.311 38.5 238.877 38.5C237.277 38.5 236.077 38.3 235.277 37.9C234.477 37.5 233.827 36.8833 233.327 36.05V49H239.777V49.9H221.277V49H224.027V15.1H221.377V14.2H233.227Z" fill="#FAED26"/>
</svg>
